<svg width="576" height="512" xmlns="http://www.w3.org/2000/svg">
 <!--!Font Awesome Free 6.5.1 by @fontawesome - https://fontawesome.com License - https://fontawesome.com/license/free Copyright 2024 Fonticons, Inc.-->

 <g>
  <title>Layer 1</title>
  <path fill="#666666" id="svg_1" d="m288,0c134.4,0 224,35.2 224,80l0,16l0,32c17.7,0 32,14.3 32,32l0,64c0,17.7 -14.3,32 -32,32l0,160c0,17.7 -14.3,32 -32,32l0,32c0,17.7 -14.3,32 -32,32l-32,0c-17.7,0 -32,-14.3 -32,-32l0,-32l-192,0l0,32c0,17.7 -14.3,32 -32,32l-32,0c-17.7,0 -32,-14.3 -32,-32l0,-32c-17.7,0 -32,-14.3 -32,-32l0,-160c-17.7,0 -32,-14.3 -32,-32l0,-64c0,-17.7 14.3,-32 32,-32l0,0l0,-32l0,0l0,-16c0,-44.8 89.6,-80 224,-80zm-160,160l0,96c0,17.7 14.3,32 32,32l112,0l0,-160l-112,0c-17.7,0 -32,14.3 -32,32zm176,128l112,0c17.7,0 32,-14.3 32,-32l0,-96c0,-17.7 -14.3,-32 -32,-32l-112,0l0,160zm-160,112a32,32 0 1 0 0,-64a32,32 0 1 0 0,64zm288,0a32,32 0 1 0 0,-64a32,32 0 1 0 0,64zm-48,-320c0,-8.8 -7.2,-16 -16,-16l-160,0c-8.8,0 -16,7.2 -16,16s7.2,16 16,16l160,0c8.8,0 16,-7.2 16,-16z"/>
 </g>
</svg>
