<svg width="616" height="512" xmlns="http://www.w3.org/2000/svg">

 <g>
  <title>Layer 1</title>
  <path fill="#8391AE" id="svg_1" d="m602,119.6l-64.9,-103.6c-5.8,-9.3 -16.1,-15 -27.1,-15l-404,0c-11,0 -21.3,5.7 -27.1,15l-64.9,103.6c-33.5,53.5 -3.8,127.9 58.8,136.4c4.5,0.6 9.1,0.9 13.7,0.9c29.6,0 55.8,-13 73.8,-33.1c18,20.1 44.3,33.1 73.8,33.1c29.6,0 55.8,-13 73.8,-33.1c18,20.1 44.3,33.1 73.8,33.1c29.6,0 55.8,-13 73.8,-33.1c18.1,20.1 44.3,33.1 73.8,33.1c4.7,0 9.2,-0.3 13.7,-0.9c62.8,-8.4 92.6,-82.8 59,-136.4zm-72.5,169.4c-10,0 -19.9,-1.5 -29.5,-3.8l0,99.8l-384,0l0,-99.8c-9.6,2.2 -19.5,3.8 -29.5,3.8c-6,0 -12.1,-0.4 -18,-1.2c-5.6,-0.8 -11.1,-2.1 -16.4,-3.6l0,196.8c0,17.7 14.3,32 32,32l448,0c17.7,0 32,-14.3 32,-32l0,-196.8c-5.4,1.6 -10.8,2.9 -16.4,3.6c-6.1,0.8 -12.1,1.2 -18.2,1.2z"/>
  <path id="svg_2" d="m81,160" opacity="NaN"/>
 </g>
</svg>
